<?xml version="1.0" encoding="utf-8"?>
<!-- Generator: Adobe Illustrator 20.1.0, SVG Export Plug-In . SVG Version: 6.00 Build 0)  -->
<svg version="1.1" id="Layer_1" xmlns="http://www.w3.org/2000/svg" xmlns:xlink="http://www.w3.org/1999/xlink" x="0px" y="0px"
	 viewBox="0 0 175 85" style="enable-background:new 0 0 175 85;" xml:space="preserve">
<style type="text/css">
	.st0{fill:#002D56;}
	.st1{fill:#387167;}
	.st2{fill:#FFFFFF;}
</style>
<title>Artboard 1</title>
<g>
	<path class="st0" d="M68.6,22.3H75c3.7,0,6.4,0.5,8.1,1.6c3.2,2,4.8,5.2,4.8,9.5c0,4.3-1.6,7.4-4.8,9.4c-1.8,1.1-4.6,1.7-8.4,1.7
		h-6V22.3z M73,25.6v15.5h2.5c2.5,0,4.4-0.7,5.7-2c1.4-1.4,2.1-3.3,2.1-5.7c0-2.5-0.7-4.4-2-5.7c-1.4-1.3-3.3-2-5.9-2H73z"/>
	<path class="st0" d="M106,36.2v1.3H94.6c0.1,1.4,0.6,2.4,1.6,3.2c1,0.8,2.2,1.2,3.7,1.2c1.7,0,3.3-0.4,4.8-1.2V44
		c-1.6,0.6-3.4,1-5.5,1c-2.7,0-4.8-0.8-6.4-2.3c-1.5-1.6-2.3-3.7-2.3-6.5c0-2.5,0.7-4.4,2.2-6c1.5-1.5,3.4-2.3,5.8-2.3
		c2.3,0,4.2,0.7,5.5,2.2C105.3,31.5,106,33.6,106,36.2z M102.2,34.9c-0.1-1.4-0.5-2.5-1.2-3.2c-0.7-0.8-1.5-1.1-2.6-1.1
		c-1.1,0-2,0.4-2.7,1.1c-0.7,0.8-1.1,1.8-1.3,3.2H102.2z"/>
	<path class="st0" d="M118.8,27.9c3.9,0,5.8,2.3,5.8,7v9.7h-4.2v-8.8c0-2.9-1.1-4.4-3.2-4.4c-1.3,0-2.3,0.5-2.9,1.6
		c-0.6,0.9-0.9,2.1-0.9,3.5v8.1h-4.2V31.7c0-0.6-0.2-0.9-0.5-1.1c-0.3-0.1-0.7-0.2-1.3-0.2v-2.1h3.7c1.3,0,2,0.6,2,1.9v1.1
		C114.3,29,116.2,27.9,118.8,27.9z"/>
	<path class="st0" d="M134.8,23v5.3h3.9v3.1h-3.9v7.1c0,1.2,0.2,2.1,0.5,2.6c0.4,0.5,1,0.8,1.9,0.8c0.5,0,1-0.1,1.6-0.3l0.1,2.9
		c-0.9,0.2-1.9,0.4-2.9,0.4c-1.9,0-3.3-0.5-4.1-1.4c-0.8-1-1.2-2.5-1.2-4.7v-7.4h-3.2v-3.1h3.4v-3.9L134.8,23z"/>
	<path class="st0" d="M155.5,39.7c0,1.2,0.1,1.9,0.2,2.1c0.2,0.4,0.8,0.6,1.8,0.6v2.1h-3.6c-1.3,0-2-0.6-2-1.9l0-0.8
		c-1.4,2-3.2,3-5.5,3c-1.6,0-2.9-0.5-3.9-1.4c-1-0.9-1.5-2.2-1.5-3.7c0-2.4,1.3-4.1,3.9-4.8c1.3-0.4,3.6-0.6,6.8-0.6v-0.2
		c0-2.3-1.3-3.5-4-3.5c-1.5,0-3,0.4-4.6,1.3l-0.1-3c1.9-0.8,3.8-1.2,5.7-1.2c2.4,0,4.2,0.6,5.3,1.8c0.9,0.9,1.4,2.4,1.6,4.4
		C155.5,34.5,155.5,36.4,155.5,39.7z M151.5,37.6v-0.9H150c-3.4,0-5.1,0.9-5.1,2.8c0,0.7,0.3,1.3,0.8,1.8c0.5,0.4,1.1,0.6,1.9,0.6
		c1.2,0,2.2-0.4,2.9-1.3C151.1,39.9,151.5,38.9,151.5,37.6z"/>
	<path class="st0" d="M164.6,44.5h-4.1V24.1c0-0.6-0.2-1-0.5-1.2c-0.2-0.1-0.7-0.2-1.4-0.2v-2.1h4c1.3,0,2,0.6,2,1.9V44.5z"/>
</g>
<path class="st1" d="M172,59.1c0,2.4-1.5,4.4-3.4,4.4H5.7c-1.9,0-3.4-2-3.4-4.4v-6.2c0-2.4,1.5-4.4,3.4-4.4h162.9
	c1.9,0,3.4,2,3.4,4.4V59.1z"/>
<g>
	<path class="st2" d="M63.2,53.2c0-0.3-0.2-0.5-0.5-0.5h-0.5v-0.7H65c0.3,0,0.5,0.2,0.7,0.6l1.6,4.6c0.1,0.3,0.2,0.7,0.2,1.2
		c0-0.5,0.1-1,0.2-1.2l1.9-5.2h2.2v7.5h-1.4V54c0-0.4,0-0.9,0.1-1.3c-0.1,0.5-0.2,0.9-0.3,1.1l-2.1,5.8h-1.3l-2.1-5.8
		c-0.1-0.3-0.2-0.7-0.3-1.2c0.1,0.8,0.1,1.2,0.1,1.4v5.6h-1.3V53.2z"/>
	<path class="st2" d="M73.5,59.6v-4.3c0-0.3-0.2-0.5-0.5-0.5h-0.1v-0.7h1.4c0.5,0,0.7,0.2,0.7,0.6v4.9H73.5z M75.1,52.3
		c0,0.5-0.3,0.7-0.9,0.7c-0.6,0-0.9-0.2-0.9-0.7c0-0.5,0.3-0.7,0.9-0.7C74.8,51.6,75.1,51.8,75.1,52.3z"/>
	<path class="st2" d="M80.6,54.2l-0.1,1.1c-0.5-0.2-0.8-0.3-1.1-0.3c-0.5,0-1,0.2-1.3,0.5c-0.3,0.3-0.5,0.8-0.5,1.3
		c0,0.5,0.2,1,0.5,1.3c0.3,0.3,0.7,0.5,1.3,0.5c0.4,0,0.8-0.1,1.2-0.4l0.1,1.1c-0.7,0.2-1.2,0.3-1.5,0.3c-0.9,0-1.6-0.3-2.2-0.8
		c-0.5-0.5-0.8-1.2-0.8-2.1c0-0.8,0.3-1.5,0.8-2c0.5-0.5,1.3-0.8,2.1-0.8C79.3,54,79.8,54.1,80.6,54.2z"/>
	<path class="st2" d="M81.2,52.2v-0.7h1.4c0.5,0,0.7,0.2,0.7,0.6v2.8c0.4-0.6,1-1,1.8-1c1.3,0,2,0.8,2,2.4v3.3h-1.4v-3
		c0-1-0.4-1.5-1.1-1.5c-0.4,0-0.8,0.2-1,0.6c-0.2,0.3-0.3,0.7-0.3,1.2v2.7h-1.4v-6.9c0-0.2-0.1-0.3-0.2-0.4
		C81.5,52.2,81.4,52.2,81.2,52.2z"/>
	<path class="st2" d="M93.1,58c0,0.4,0,0.6,0.1,0.7c0.1,0.1,0.3,0.2,0.6,0.2v0.7h-1.2c-0.4,0-0.7-0.2-0.7-0.6l0-0.3
		c-0.5,0.7-1.1,1-1.9,1c-0.5,0-1-0.2-1.3-0.5c-0.3-0.3-0.5-0.7-0.5-1.3c0-0.8,0.4-1.4,1.3-1.6c0.4-0.1,1.2-0.2,2.3-0.2v-0.1
		c0-0.8-0.5-1.2-1.4-1.2c-0.5,0-1,0.1-1.6,0.4l0-1c0.6-0.3,1.3-0.4,1.9-0.4c0.8,0,1.4,0.2,1.8,0.6c0.3,0.3,0.5,0.8,0.6,1.5
		C93.1,56.2,93.1,56.9,93.1,58z M91.8,57.3V57h-0.5c-1.2,0-1.7,0.3-1.7,1c0,0.3,0.1,0.5,0.3,0.6c0.2,0.1,0.4,0.2,0.6,0.2
		c0.4,0,0.7-0.1,1-0.4C91.7,58,91.8,57.7,91.8,57.3z"/>
	<path class="st2" d="M99.5,56.8v0.4h-3.9c0,0.5,0.2,0.8,0.5,1.1c0.3,0.3,0.7,0.4,1.3,0.4c0.6,0,1.1-0.1,1.6-0.4v1.1
		c-0.5,0.2-1.2,0.3-1.9,0.3c-0.9,0-1.6-0.3-2.2-0.8c-0.5-0.5-0.8-1.3-0.8-2.2c0-0.8,0.3-1.5,0.8-2c0.5-0.5,1.2-0.8,2-0.8
		c0.8,0,1.4,0.2,1.9,0.7C99.3,55.2,99.5,55.9,99.5,56.8z M98.3,56.4c0-0.5-0.2-0.8-0.4-1.1c-0.2-0.3-0.5-0.4-0.9-0.4
		c-0.4,0-0.7,0.1-0.9,0.4c-0.2,0.3-0.4,0.6-0.4,1.1H98.3z"/>
	<path class="st2" d="M102.2,59.6h-1.4v-6.9c0-0.2-0.1-0.3-0.2-0.4c-0.1,0-0.2-0.1-0.5-0.1v-0.7h1.4c0.5,0,0.7,0.2,0.7,0.6V59.6z"/>
	<path class="st2" d="M106.7,59.3c-0.2,0-0.3,0.2-0.4,0.6l-0.7-0.1c0.1-0.3,0.1-0.7,0.2-1.2c0-0.2,0.1-0.3,0.3-0.4
		c0.2-0.1,0.3-0.2,0.5-0.2c0.1,0,0.3,0,0.4,0.1c0.3,0.1,0.6,0.3,0.9,0.4c0.3,0.1,0.7,0.2,0.9,0.2c0.3,0,0.6-0.1,0.9-0.2
		c0.3-0.2,0.5-0.4,0.5-0.8c0-0.4-0.3-0.7-0.8-1c-1-0.6-1.5-0.9-1.6-0.9c-0.6-0.4-0.8-1-0.8-1.7c0-0.7,0.3-1.3,0.9-1.6
		c0.5-0.3,1.1-0.5,1.9-0.5c0.3,0,0.6,0,0.9,0.1c0.3,0.1,0.6,0.2,0.9,0.2l-0.1,1.2c-0.6-0.3-1.1-0.4-1.7-0.4c-0.8,0-1.3,0.3-1.3,0.8
		c0,0.3,0.3,0.6,0.9,0.9c0.9,0.5,1.5,0.8,1.6,0.9c0.6,0.4,0.9,1,0.9,1.7c0,0.8-0.3,1.3-0.9,1.8c-0.5,0.4-1.2,0.6-2,0.6
		c-0.4,0-1.1-0.1-2-0.4C106.8,59.3,106.7,59.3,106.7,59.3z"/>
	<path class="st2" d="M113.2,58.2h1.4v1.4h-1.4V58.2z"/>
	<path class="st2" d="M121,58.4c0,0.2,0.1,0.3,0.2,0.4c0.1,0,0.2,0.1,0.5,0.1v0.7h-1.4c-0.5,0-0.7-0.2-0.7-0.6v-6.9h2.2
		c1.9,0,2.9,0.8,2.9,2.3c0,0.8-0.3,1.4-0.8,1.8c-0.5,0.4-1.2,0.5-2,0.5H121V58.4z M121,53.1v2.5h0.6c1,0,1.5-0.4,1.5-1.3
		c0-0.9-0.5-1.3-1.4-1.3H121z"/>
	<path class="st2" d="M130,58c0,0.4,0,0.6,0.1,0.7c0.1,0.1,0.3,0.2,0.6,0.2v0.7h-1.2c-0.4,0-0.7-0.2-0.7-0.6l0-0.3
		c-0.5,0.7-1.1,1-1.9,1c-0.5,0-1-0.2-1.3-0.5c-0.3-0.3-0.5-0.7-0.5-1.3c0-0.8,0.4-1.4,1.3-1.6c0.5-0.1,1.2-0.2,2.3-0.2v-0.1
		c0-0.8-0.5-1.2-1.4-1.2c-0.5,0-1,0.1-1.6,0.4l0-1c0.6-0.3,1.3-0.4,1.9-0.4c0.8,0,1.4,0.2,1.8,0.6c0.3,0.3,0.5,0.8,0.6,1.5
		C130,56.2,130,56.9,130,58z M128.7,57.3V57h-0.5c-1.2,0-1.7,0.3-1.7,1c0,0.3,0.1,0.5,0.3,0.6c0.2,0.1,0.4,0.2,0.6,0.2
		c0.4,0,0.7-0.1,1-0.4C128.5,58,128.7,57.7,128.7,57.3z"/>
	<path class="st2" d="M131.6,55.3c0-0.3-0.2-0.5-0.5-0.5h-0.1v-0.7h1.2c0.5,0,0.7,0.2,0.7,0.6v0.4c0.4-0.8,1.1-1.2,2-1.2
		c0.8,0,1.3,0.3,1.8,0.9c0.4,0.5,0.6,1.2,0.6,2c0,0.8-0.2,1.4-0.6,2c-0.4,0.6-1,0.9-1.8,0.9c-0.8,0-1.4-0.3-1.8-1v3.1h-1.4V55.3z
		 M135.4,55.6c-0.2-0.4-0.6-0.6-1-0.6c-0.5,0-0.8,0.2-1.1,0.6c-0.2,0.3-0.3,0.7-0.3,1.2c0,0.5,0.1,0.9,0.3,1.2
		c0.2,0.4,0.6,0.6,1.1,0.6c0.5,0,0.8-0.2,1.1-0.6c0.2-0.3,0.3-0.7,0.3-1.2C135.7,56.3,135.6,55.9,135.4,55.6z"/>
	<path class="st2" d="M138.7,58.2h1.4l-1,2.7H138L138.7,58.2z"/>
	<path class="st2" d="M144.9,52.1h2.2c1.3,0,2.2,0.2,2.8,0.5c1.1,0.7,1.6,1.8,1.6,3.2c0,1.4-0.5,2.5-1.6,3.2
		c-0.6,0.4-1.6,0.6-2.9,0.6h-2V52.1z M146.4,53.2v5.3h0.9c0.8,0,1.5-0.2,1.9-0.7c0.5-0.5,0.7-1.1,0.7-1.9c0-0.8-0.2-1.5-0.7-1.9
		c-0.5-0.4-1.1-0.7-2-0.7H146.4z"/>
	<path class="st2" d="M152.7,52.1h2.2c1.3,0,2.2,0.2,2.8,0.5c1.1,0.7,1.6,1.8,1.6,3.2c0,1.4-0.5,2.5-1.6,3.2
		c-0.6,0.4-1.6,0.6-2.9,0.6h-2V52.1z M154.2,53.2v5.3h0.9c0.8,0,1.5-0.2,1.9-0.7c0.5-0.5,0.7-1.1,0.7-1.9c0-0.8-0.2-1.5-0.7-1.9
		c-0.5-0.4-1.1-0.7-2-0.7H154.2z"/>
	<path class="st2" d="M160.1,59.3c-0.2,0-0.3,0.2-0.4,0.6l-0.7-0.1c0-0.3,0.1-0.7,0.2-1.2c0-0.2,0.1-0.3,0.3-0.4
		c0.2-0.1,0.3-0.2,0.5-0.2c0.1,0,0.3,0,0.4,0.1c0.3,0.1,0.6,0.3,0.9,0.4c0.3,0.1,0.7,0.2,0.9,0.2c0.3,0,0.6-0.1,0.9-0.2
		c0.3-0.2,0.5-0.4,0.5-0.8c0-0.4-0.3-0.7-0.8-1c-1-0.6-1.5-0.9-1.6-0.9c-0.6-0.4-0.8-1-0.8-1.7c0-0.7,0.3-1.3,0.9-1.6
		c0.5-0.3,1.1-0.5,1.9-0.5c0.3,0,0.6,0,0.9,0.1c0.3,0.1,0.6,0.2,0.9,0.2l-0.1,1.2c-0.6-0.3-1.1-0.4-1.7-0.4c-0.8,0-1.3,0.3-1.3,0.8
		c0,0.3,0.3,0.6,0.9,0.9c0.9,0.5,1.5,0.8,1.6,0.9c0.6,0.4,0.9,1,0.9,1.7c0,0.8-0.3,1.3-0.9,1.8c-0.5,0.4-1.2,0.6-2,0.6
		c-0.4,0-1.1-0.1-2-0.4C160.2,59.3,160.2,59.3,160.1,59.3z"/>
</g>
<g>
	<path class="st0" d="M31.2,23.8c0,0,6.3-3.9,15.7-3.4c7.4,0.4,7.3,5,7.3,5s6.8,0.2,7.7,7c0.9,6.8-3.9,13.4-4.2,17.2
		c-0.4,5.5-0.3,9.2,0.2,14.9c0.7,7.2-0.4,16.5-7.4,17.6c-7,1.1-6.9-3.6-9.1-12.9c-2.1-9.4-10.6-4.5-10.1,1.1
		c0.5,5.6,0.1,12.7-6.1,13c-6.2,0.3-8.6-7.4-9-10.1c-0.4-2.8-1.7-18.7-3.6-23.6c-1.9-4.8-8.3-11.6-7.9-16.1c0.4-4.5,3-9.8,16.5-11.6
		C24.3,21.7,31.2,23.8,31.2,23.8z"/>
	<path class="st2" d="M36.7,26.9c0,0-9.1-3.8-15.3-3.1c-6.9,0.1-14.8,2.7-14.6,8.8c0.1,6.1,4.2,7.7,6.9,14.9
		c2.8,7.2,2.9,11.8,4.2,21.4c1.3,9.6,3.2,12.2,7.1,12.1c3.9-0.1,4.6-2.7,4.7-9.3c0-6.5,2.2-9.9,6.7-10c4.5-0.1,7,5.1,7.8,8.6
		c0.8,3.5,0.3,9.8,6.2,9.6c5.9-0.1,5.6-8.3,5.4-12.9C55.7,62.4,54,56.9,55,49.8c1.1-7.1,6.8-10.7,4.2-18.4c-2.6-7.7-16.3-2.3-19.1-1
		c-2.8,1.3-8.7,7.3-17.1-0.4c6,3.5,8.7,3.9,16.7-1.7c4.8-3.2,13.4-3,13.4-3s-0.2-3.5-8.5-2.9c-8.3,0.6-11.8,2.1-11.8,2.1
		S35.1,25.3,36.7,26.9z"/>
</g>
<path class="st0" d="M7.8,15.9L5.3,5.7C5.2,5.4,5.2,5.2,5,5.1C4.9,5,4.8,5,4.5,5H3.7V3.8h2.7c0.6,0,1,0.3,1.1,1l1.7,8.1
	c0.1,0.3,0.1,0.9,0.2,1.9c0-0.8,0.1-1.4,0.2-1.8l2-9.1h3.1l2,9.1c0.1,0.3,0.1,0.9,0.2,1.8c0-0.7,0.1-1.3,0.2-1.8l2-9.2h2.2l-3,12.1
	h-3l-2.1-9.3c-0.1-0.4-0.2-1-0.2-1.7c0,0.7-0.1,1.3-0.2,1.7l-2,9.3H7.8z"/>
<path class="st0" d="M31.1,11.4v0.7h-6.2c0.1,0.7,0.3,1.3,0.9,1.8c0.5,0.4,1.2,0.6,2,0.6c0.9,0,1.8-0.2,2.6-0.6v1.7
	c-0.9,0.4-1.9,0.5-3,0.5c-1.5,0-2.6-0.4-3.5-1.3c-0.8-0.8-1.2-2-1.2-3.5c0-1.3,0.4-2.4,1.2-3.3c0.8-0.8,1.9-1.2,3.2-1.2
	c1.3,0,2.3,0.4,3,1.2C30.7,8.8,31.1,10,31.1,11.4z M29,10.7C28.9,10,28.7,9.4,28.4,9C28,8.5,27.5,8.3,27,8.3c-0.6,0-1.1,0.2-1.4,0.6
	c-0.4,0.4-0.6,1-0.7,1.8H29z"/>
<path class="st0" d="M40.2,7.4L40,9c-0.8-0.4-1.5-0.6-2.3-0.6c-0.9,0-1.3,0.3-1.3,0.8c0,0.3,0.1,0.5,0.4,0.7
	c0.2,0.1,0.5,0.3,1.2,0.6c0.9,0.4,1.5,0.8,1.9,1.1c0.4,0.4,0.6,1,0.6,1.6c0,0.8-0.3,1.5-1,2C38.9,15.8,38,16,36.8,16
	c-1,0-1.9-0.2-2.7-0.5l0.1-1.7c0.9,0.4,1.7,0.6,2.6,0.6c0.9,0,1.4-0.3,1.4-0.9c0-0.3-0.2-0.6-0.5-0.8c-0.2-0.2-0.7-0.4-1.3-0.7
	c-0.8-0.4-1.3-0.8-1.6-1.1c-0.4-0.4-0.6-0.9-0.6-1.5c0-0.8,0.3-1.4,1-1.9c0.6-0.5,1.5-0.8,2.6-0.8C38.3,6.9,39.1,7,40.2,7.4z"/>
<path class="st0" d="M47.3,4.2v2.9h2.1v1.7h-2.1v3.9c0,0.7,0.1,1.1,0.3,1.4c0.2,0.3,0.5,0.4,1,0.4c0.3,0,0.5-0.1,0.9-0.2l0,1.6
	c-0.5,0.1-1,0.2-1.6,0.2c-1.1,0-1.8-0.3-2.3-0.8C45.3,14.8,45,14,45,12.8v-4h-1.7V7.1h1.9V4.9L47.3,4.2z"/>
<path class="st0" d="M58.7,7.4L58.5,9c-0.8-0.4-1.5-0.6-2.3-0.6c-0.9,0-1.3,0.3-1.3,0.8c0,0.3,0.1,0.5,0.4,0.7
	c0.2,0.1,0.5,0.3,1.2,0.6c0.9,0.4,1.5,0.8,1.9,1.1c0.4,0.4,0.6,1,0.6,1.6c0,0.8-0.3,1.5-1,2c-0.7,0.5-1.6,0.8-2.8,0.8
	c-1,0-1.9-0.2-2.7-0.5l0.1-1.7c0.9,0.4,1.7,0.6,2.6,0.6c0.9,0,1.4-0.3,1.4-0.9c0-0.3-0.2-0.6-0.5-0.8c-0.2-0.2-0.7-0.4-1.3-0.7
	c-0.8-0.4-1.3-0.8-1.6-1.1c-0.4-0.4-0.6-0.9-0.6-1.5c0-0.8,0.3-1.4,1-1.9c0.6-0.5,1.5-0.8,2.6-0.8C56.8,6.9,57.6,7,58.7,7.4z"/>
<path class="st0" d="M62.8,15.9V9c0-0.5-0.3-0.7-0.8-0.7h-0.2V7.1h2.2c0.7,0,1.1,0.3,1.1,1v7.8H62.8z M65.4,4.2
	c0,0.8-0.5,1.1-1.5,1.1c-1,0-1.5-0.4-1.5-1.1c0-0.7,0.5-1.1,1.5-1.1C64.9,3,65.4,3.4,65.4,4.2z"/>
<path class="st0" d="M74.6,8.4V4.8c0-0.3-0.1-0.5-0.3-0.6C74.2,4.1,74,4,73.6,4V2.9h2.2c0.7,0,1.1,0.3,1.1,1v12.1h-2v-1.8
	c-0.7,1.3-1.8,1.9-3.2,1.9c-1.2,0-2.1-0.5-2.8-1.5c-0.6-0.9-0.9-1.9-0.9-3.2c0-1.2,0.3-2.3,0.9-3.1c0.7-0.9,1.6-1.4,2.8-1.4
	C72.9,6.9,73.9,7.4,74.6,8.4z M72.4,8.6c-0.6,0-1.1,0.3-1.5,0.8c-0.4,0.5-0.6,1.2-0.6,2.1c0,0.9,0.2,1.6,0.6,2.1
	c0.4,0.5,0.9,0.8,1.6,0.8c0.7,0,1.2-0.3,1.6-0.8c0.4-0.5,0.6-1.2,0.6-2.1c0-0.9-0.2-1.6-0.6-2.1C73.6,8.8,73,8.6,72.4,8.6z"/>
<path class="st0" d="M88,11.4v0.7h-6.2c0.1,0.7,0.3,1.3,0.9,1.8c0.5,0.4,1.2,0.6,2,0.6c0.9,0,1.8-0.2,2.6-0.6v1.7
	c-0.9,0.4-1.9,0.5-3,0.5c-1.5,0-2.6-0.4-3.5-1.3c-0.8-0.8-1.2-2-1.2-3.5c0-1.3,0.4-2.4,1.2-3.3c0.8-0.8,1.9-1.2,3.2-1.2
	c1.3,0,2.3,0.4,3,1.2C87.7,8.8,88,10,88,11.4z M86,10.7C85.9,10,85.7,9.4,85.4,9C85,8.5,84.5,8.3,84,8.3c-0.6,0-1.1,0.2-1.5,0.6
	c-0.4,0.4-0.6,1-0.7,1.8H86z"/>
<path class="st0" d="M98.5,15.9V5.7c0-0.3-0.1-0.5-0.3-0.6c-0.1-0.1-0.4-0.1-0.7-0.1V3.8h7.3c0.7,0,1.1,0.3,1.1,1v0.7h-5h5h-5v3.3
	h4.4v1.8h-4.4v5.3H98.5z"/>
<path class="st0" d="M115.2,13.3c0,0.6,0,1,0.1,1.1c0.1,0.2,0.4,0.3,1,0.3v1.2h-2c-0.7,0-1.1-0.3-1.1-1l0-0.4
	c-0.8,1.1-1.8,1.7-3,1.7c-0.9,0-1.6-0.3-2.1-0.8c-0.6-0.5-0.8-1.2-0.8-2c0-1.3,0.7-2.2,2.1-2.6c0.7-0.2,2-0.3,3.7-0.3v-0.1
	c0-1.3-0.7-1.9-2.2-1.9c-0.8,0-1.6,0.2-2.5,0.7l0-1.6c1-0.4,2.1-0.6,3.1-0.6c1.3,0,2.3,0.3,2.9,1c0.5,0.5,0.8,1.3,0.9,2.4
	C115.2,10.5,115.2,11.5,115.2,13.3z M113,12.2v-0.5h-0.8c-1.9,0-2.8,0.5-2.8,1.5c0,0.4,0.1,0.7,0.4,1c0.3,0.2,0.6,0.4,1,0.4
	c0.7,0,1.2-0.2,1.6-0.7C112.8,13.4,113,12.8,113,12.2z"/>
<path class="st0" d="M121.7,15.9h-2.3V9c0-0.5-0.3-0.7-0.9-0.7h-0.1V7.1h2c0.7,0,1.1,0.3,1.1,1v0.6c0.7-1.2,1.7-1.8,3.1-1.8
	c1.3,0,2.2,0.6,2.7,1.9c0.7-1.3,1.7-1.9,3.1-1.9c1,0,1.8,0.4,2.3,1.2c0.4,0.7,0.6,1.5,0.6,2.6v5.3H131v-4.8c0-1.6-0.5-2.4-1.5-2.4
	c-0.7,0-1.2,0.3-1.6,0.9c-0.3,0.5-0.4,1.1-0.4,1.9v4.4h-2.3v-4.8c0-1.6-0.5-2.4-1.5-2.4c-0.7,0-1.2,0.3-1.6,0.9
	c-0.3,0.5-0.4,1.1-0.4,1.9V15.9z"/>
<path class="st0" d="M137.5,15.9V9c0-0.5-0.3-0.7-0.8-0.7h-0.2V7.1h2.2c0.7,0,1.1,0.3,1.1,1v7.8H137.5z M140.2,4.2
	c0,0.8-0.5,1.1-1.5,1.1c-1,0-1.5-0.4-1.5-1.1c0-0.7,0.5-1.1,1.5-1.1C139.7,3,140.2,3.4,140.2,4.2z"/>
<path class="st0" d="M146.6,15.9h-2.3V4.8c0-0.3-0.1-0.5-0.3-0.6c-0.1-0.1-0.4-0.1-0.8-0.1V2.9h2.2c0.7,0,1.1,0.3,1.1,1V15.9z"/>
<path class="st0" d="M154.1,16.3L151.4,9c-0.1-0.3-0.2-0.5-0.3-0.5c-0.1-0.1-0.3-0.2-0.6-0.2h-0.9V7.1h2.5c0.5,0,0.9,0.3,1.1,1
	l1.9,5.8l2.1-6.8h2.3l-3.4,9.3c-0.4,1.2-0.9,2.1-1.5,2.6c-0.6,0.5-1.3,0.8-2.3,0.8c-0.3,0-0.7,0-1.3-0.1l0.2-1.8
	c0.3,0.1,0.5,0.1,0.7,0.1C152.9,17.9,153.5,17.4,154.1,16.3z"/>
</svg>
